<svg width="549" height="189" viewBox="0 0 549 189" fill="none" xmlns="http://www.w3.org/2000/svg">
<path d="M118.463 22.4686L96.2373 60.9266L74.0124 22.4686H0L96.2373 188.998L192.475 22.4686H118.463Z" fill="#41B883"/>
<path d="M118.463 22.4685L96.2373 60.9266L74.0123 22.4685H38.4948L96.2373 122.384L153.979 22.4685H118.463Z" fill="#34495E"/>
<path d="M548.271 27.9151L460.116 186.144C458.296 189.41 453.62 189.43 451.773 186.179L361.87 27.9303C359.857 24.3876 362.875 20.0964 366.875 20.8139L455.124 36.6473C455.687 36.7482 456.263 36.7473 456.826 36.6443L543.231 20.8367C547.216 20.1075 550.248 24.3654 548.271 27.9151Z" fill="url(#paint0_linear_29_49)"/>
<path d="M497.162 0.0464359L431.925 12.8774C430.852 13.0882 430.058 14.0003 429.993 15.0949L425.98 83.1259C425.887 84.7282 427.353 85.9719 428.911 85.6112L447.074 81.4038C448.773 81.0103 450.308 82.5127 449.959 84.2281L444.563 110.752C444.2 112.537 445.869 114.064 447.607 113.534L458.824 110.112C460.563 109.582 462.235 111.114 461.867 112.899L453.291 154.563C452.755 157.169 456.208 158.59 457.649 156.355L458.611 154.863L511.77 48.3765C512.659 46.5934 511.125 44.5604 509.174 44.9383L490.478 48.5602C488.721 48.9002 487.226 47.2578 487.721 45.5325L499.924 3.07255C500.421 1.34419 498.921 -0.299447 497.162 0.0464359Z" fill="url(#paint1_linear_29_49)"/>
<g clip-path="url(#clip0_29_49)">
<path d="M276.854 189C323.453 189 361.229 151.129 361.229 104.413C361.229 57.6962 323.453 19.8252 276.854 19.8252C230.255 19.8252 192.48 57.6962 192.48 104.413C192.48 151.129 230.255 189 276.854 189Z" fill="#2B2E3A"/>
<path d="M258.728 67.2007C241.586 64.071 228.032 67.3468 222.63 76.7267C218.599 83.7263 219.752 93.0065 225.425 102.926C225.537 103.132 225.689 103.314 225.872 103.46C226.055 103.607 226.265 103.715 226.491 103.779C226.716 103.843 226.951 103.861 227.184 103.832C227.416 103.803 227.64 103.728 227.843 103.612C228.046 103.495 228.224 103.339 228.366 103.152C228.508 102.966 228.612 102.753 228.67 102.525C228.729 102.298 228.742 102.062 228.709 101.829C228.675 101.597 228.595 101.374 228.475 101.173C223.365 92.2373 222.37 84.2286 225.675 78.4892C230.163 70.6972 242.252 67.775 258.098 70.6682C258.553 70.7442 259.02 70.6376 259.398 70.3714C259.775 70.1052 260.034 69.7008 260.116 69.2455C260.199 68.7903 260.1 68.3206 259.84 67.938C259.58 67.5554 259.181 67.2906 258.728 67.2007ZM234.339 114.984C241.271 122.62 250.276 129.783 260.545 135.726C285.412 150.12 311.884 153.966 324.931 145.048C325.126 144.92 325.293 144.754 325.424 144.559C325.554 144.365 325.645 144.147 325.69 143.918C325.735 143.688 325.735 143.452 325.688 143.222C325.641 142.993 325.549 142.775 325.418 142.582C325.286 142.389 325.118 142.223 324.922 142.096C324.726 141.969 324.507 141.882 324.277 141.84C324.047 141.799 323.812 141.804 323.584 141.855C323.356 141.906 323.14 142.001 322.95 142.137C311.273 150.118 286.127 146.464 262.304 132.675C252.341 126.908 243.62 119.972 236.94 112.612C236.785 112.439 236.597 112.3 236.388 112.2C236.179 112.101 235.952 112.044 235.721 112.032C235.49 112.021 235.259 112.056 235.041 112.134C234.823 112.212 234.623 112.333 234.452 112.489C234.28 112.645 234.142 112.834 234.043 113.044C233.945 113.254 233.889 113.481 233.879 113.713C233.868 113.945 233.904 114.177 233.983 114.395C234.062 114.613 234.183 114.813 234.339 114.984Z" fill="#9FEAF9"/>
<path d="M320.769 112.84C331.993 99.5468 335.912 86.1767 330.521 76.8166C326.555 69.9286 318.169 66.2921 307.025 66.1467C306.563 66.1473 306.12 66.3302 305.791 66.6558C305.463 66.9813 305.275 67.4233 305.269 67.8863C305.263 68.3493 305.439 68.7961 305.759 69.13C306.079 69.464 306.518 69.6583 306.979 69.6709C317.002 69.8018 324.227 72.9348 327.477 78.579C331.954 86.3538 328.459 98.2767 318.085 110.563C317.933 110.739 317.817 110.944 317.744 111.165C317.671 111.387 317.643 111.62 317.661 111.853C317.679 112.085 317.743 112.312 317.849 112.519C317.955 112.727 318.101 112.911 318.278 113.062C318.456 113.213 318.661 113.326 318.883 113.397C319.105 113.467 319.338 113.493 319.57 113.472C319.801 113.452 320.026 113.385 320.232 113.277C320.438 113.168 320.62 113.02 320.769 112.84ZM291.922 67.7875C281.774 69.9676 270.971 74.2301 260.597 80.2344C234.927 95.0921 218.182 117.001 220.508 132.887C220.539 133.118 220.615 133.341 220.733 133.542C220.85 133.743 221.006 133.919 221.192 134.06C221.378 134.2 221.59 134.302 221.815 134.36C222.041 134.417 222.275 134.43 222.506 134.396C222.736 134.362 222.957 134.282 223.156 134.162C223.356 134.042 223.529 133.883 223.667 133.695C223.805 133.507 223.904 133.294 223.959 133.067C224.013 132.84 224.023 132.605 223.986 132.375C221.921 118.27 237.794 97.5028 262.355 83.2868C272.419 77.4616 282.878 73.3346 292.659 71.2338C292.888 71.1886 293.105 71.0981 293.299 70.9677C293.492 70.8373 293.658 70.6696 293.787 70.4743C293.915 70.279 294.003 70.06 294.046 69.8302C294.09 69.6003 294.087 69.3642 294.038 69.1355C293.989 68.9068 293.895 68.6901 293.762 68.4981C293.629 68.3062 293.459 68.1427 293.262 68.0172C293.065 67.8917 292.845 67.8068 292.615 67.7674C292.385 67.728 292.15 67.7348 291.922 67.7875Z" fill="#9FEAF9"/>
<path d="M250.336 143.9C256.205 160.328 265.806 170.444 276.602 170.444C284.476 170.444 291.76 165.062 297.441 155.589C297.564 155.391 297.646 155.17 297.683 154.939C297.72 154.709 297.711 154.473 297.657 154.246C297.602 154.019 297.503 153.805 297.365 153.616C297.227 153.428 297.053 153.269 296.853 153.149C296.654 153.028 296.432 152.949 296.202 152.915C295.971 152.882 295.736 152.894 295.51 152.952C295.285 153.01 295.073 153.113 294.887 153.254C294.701 153.395 294.545 153.571 294.428 153.773C289.323 162.287 283.052 166.919 276.602 166.919C267.634 166.919 259.07 157.897 253.646 142.712C253.572 142.49 253.454 142.285 253.299 142.108C253.145 141.932 252.957 141.789 252.747 141.686C252.536 141.584 252.308 141.525 252.074 141.512C251.84 141.499 251.607 141.534 251.387 141.613C251.166 141.692 250.964 141.814 250.792 141.972C250.619 142.131 250.48 142.322 250.382 142.535C250.284 142.748 250.23 142.978 250.222 143.213C250.214 143.447 250.253 143.681 250.336 143.9H250.336ZM303.941 140.686C306.98 130.953 308.611 119.726 308.611 108.025C308.611 78.8302 298.419 53.6628 283.901 47.2004C283.477 47.0223 283 47.0179 282.573 47.1881C282.145 47.3583 281.801 47.6896 281.615 48.1109C281.428 48.5322 281.414 49.01 281.574 49.4419C281.735 49.8738 282.058 50.2254 282.474 50.4214C295.423 56.1859 305.095 80.0706 305.095 108.025C305.095 119.377 303.515 130.249 300.587 139.633C300.514 139.855 300.486 140.089 300.504 140.322C300.522 140.555 300.587 140.782 300.693 140.99C300.8 141.197 300.946 141.382 301.125 141.532C301.303 141.683 301.509 141.796 301.732 141.866C301.954 141.935 302.188 141.96 302.42 141.939C302.652 141.917 302.877 141.849 303.083 141.739C303.288 141.63 303.47 141.48 303.618 141.299C303.765 141.118 303.875 140.91 303.942 140.686H303.941ZM337.048 138.96C337.048 134.302 333.281 130.526 328.635 130.526C323.988 130.526 320.221 134.302 320.221 138.96C320.221 143.618 323.988 147.394 328.635 147.394C333.281 147.394 337.048 143.618 337.048 138.96ZM333.532 138.96C333.532 139.605 333.406 140.243 333.159 140.839C332.913 141.435 332.552 141.976 332.098 142.432C331.643 142.888 331.103 143.249 330.509 143.496C329.915 143.743 329.278 143.87 328.635 143.87C327.991 143.87 327.354 143.743 326.76 143.496C326.166 143.249 325.626 142.888 325.171 142.432C324.717 141.976 324.356 141.435 324.11 140.839C323.864 140.243 323.737 139.605 323.737 138.96C323.737 137.658 324.253 136.409 325.171 135.488C326.09 134.567 327.336 134.05 328.635 134.05C329.933 134.05 331.179 134.567 332.098 135.488C333.016 136.409 333.532 137.658 333.532 138.96ZM224.448 147.394C229.095 147.394 232.861 143.618 232.861 138.96C232.861 134.302 229.094 130.526 224.448 130.526C219.802 130.526 216.035 134.302 216.035 138.96C216.035 143.618 219.802 147.394 224.448 147.394ZM224.448 143.87C223.149 143.87 221.903 143.353 220.984 142.432C220.066 141.511 219.55 140.262 219.55 138.96C219.55 137.658 220.066 136.409 220.984 135.488C221.903 134.567 223.149 134.05 224.448 134.05C225.747 134.05 226.992 134.567 227.911 135.488C228.829 136.409 229.345 137.658 229.345 138.96C229.345 140.262 228.829 141.511 227.911 142.432C226.992 143.353 225.747 143.87 224.448 143.87Z" fill="#9FEAF9"/>
<path d="M276.602 55.8039C281.248 55.8039 285.015 52.0278 285.015 47.3696C285.015 42.7113 281.248 38.9353 276.602 38.9353C271.955 38.9353 268.189 42.7113 268.189 47.3696C268.189 52.0278 271.955 55.8039 276.602 55.8039ZM276.602 52.2796C275.303 52.2796 274.057 51.7623 273.139 50.8415C272.22 49.9207 271.704 48.6718 271.704 47.3696C271.704 46.0674 272.22 44.8185 273.139 43.8977C274.057 42.9769 275.303 42.4596 276.602 42.4596C277.901 42.4596 279.146 42.9769 280.065 43.8977C280.983 44.8185 281.499 46.0674 281.499 47.3696C281.499 48.6718 280.983 49.9207 280.065 50.8415C279.146 51.7623 277.901 52.2796 276.602 52.2796ZM277.886 113.99C274.6 114.702 271.363 112.608 270.652 109.314C270.311 107.732 270.611 106.079 271.486 104.719C272.361 103.359 273.739 102.403 275.316 102.061C278.602 101.349 281.84 103.442 282.551 106.737C283.261 110.031 281.173 113.277 277.886 113.99Z" fill="#9FEAF9"/>
</g>
<defs>
<linearGradient id="paint0_linear_29_49" x1="359.675" y1="15.1591" x2="469.924" y2="164.328" gradientUnits="userSpaceOnUse">
<stop stop-color="#41D1FF"/>
<stop offset="1" stop-color="#BD34FE"/>
</linearGradient>
<linearGradient id="paint1_linear_29_49" x1="450.059" y1="3.52998" x2="470.052" y2="140.168" gradientUnits="userSpaceOnUse">
<stop stop-color="#FFEA83"/>
<stop offset="0.0833333" stop-color="#FFDD35"/>
<stop offset="1" stop-color="#FFA800"/>
</linearGradient>
<clipPath id="clip0_29_49">
<rect width="168.749" height="169.175" fill="white" transform="translate(192.48 19.8252)"/>
</clipPath>
</defs>
</svg>
